<svg width="96" height="96" viewBox="0 0 96 96" fill="none" xmlns="http://www.w3.org/2000/svg">
  <rect width="96" height="96" rx="26" fill="url(#g)"/>
  <path d="M24 34.5C24 30.91 26.91 28 30.5 28H68C70.21 28 72 29.79 72 32V58.5C72 62.09 69.09 65 65.5 65H28C25.79 65 24 63.21 24 61V34.5Z" fill="white" fill-opacity=".16" stroke="white" stroke-opacity=".42" stroke-width="2"/>
  <path d="M31 38H65M31 55H65" stroke="white" stroke-opacity=".72" stroke-width="2.5" stroke-linecap="round"/>
  <circle cx="48" cy="46.5" r="9.5" fill="white" fill-opacity=".2" stroke="white" stroke-opacity=".7" stroke-width="2"/>
  <path d="M48 40.5V52.5M44.7 43.8C45.35 42.95 46.45 42.45 48 42.45C50.4 42.45 51.75 43.55 51.75 45.1C51.75 48.65 44.25 45.95 44.25 49.5C44.25 51 45.7 52 48.05 52C49.45 52 50.85 51.55 51.55 50.55" stroke="white" stroke-width="2" stroke-linecap="round"/>
  <defs>
    <linearGradient id="g" x1="14" y1="10" x2="86" y2="88" gradientUnits="userSpaceOnUse">
      <stop stop-color="#1FE3A1"/>
      <stop offset=".55" stop-color="#0D9F70"/>
      <stop offset="1" stop-color="#073F45"/>
    </linearGradient>
  </defs>
</svg>
